<svg xmlns="http://www.w3.org/2000/svg" version="1.1" xmlns:xlink="http://www.w3.org/1999/xlink" xmlns:svgjs="http://svgjs.dev/svgjs" width="1000" height="1000" viewBox="0 0 1000 1000"><rect width="1000" height="1000" fill="#000000"></rect><g transform="matrix(0.7,0,0,0.7,150,150.00009658675214)"><svg viewBox="0 0 280 280" data-background-color="#ffffff" preserveAspectRatio="xMidYMid meet" height="1000" width="1000" xmlns="http://www.w3.org/2000/svg" xmlns:xlink="http://www.w3.org/1999/xlink"><g id="tight-bounds" transform="matrix(1,0,0,1,0,0.00003863470081455489)"><svg viewBox="0 0 280 280" height="280" width="280"><g><svg viewBox="0 0 280 280" height="280" width="280"><g><svg viewBox="0 0 280 280" height="280" width="280"><g id="textblocktransform"><svg viewBox="0 0 280 280" height="280" width="280" id="textblock"><g><svg viewBox="0 0 280 280" height="280" width="280"><g transform="matrix(1,0,0,1,90.50252531694167,106.0556413542981)"><svg viewBox="0 0 98.99494936611666 67.88871729140378" height="67.88871729140378" width="98.99494936611666"><g><svg xmlns="http://www.w3.org/2000/svg" xmlns:xlink="http://www.w3.org/1999/xlink" version="1.1" x="0" y="0" viewBox="0 14.999738693237305 99.52799987792969 68.2542724609375" enable-background="new 0 0 100 100" xml:space="preserve" height="67.88871729140378" width="98.99494936611666" class="icon-o-0" data-fill-palette-color="accent" id="o-0"><g fill="#ed2326" data-fill-palette-color="accent"><path fill-rule="evenodd" clip-rule="evenodd" d="M99.528 49.22c0 2.451-0.614 4.667-1.84 6.651-1.226 1.979-2.802 3.702-4.734 5.164-1.93 1.458-4.057 2.671-6.378 3.636-2.32 0.968-4.549 1.684-6.688 2.152-0.99 0.261-2.06 0.417-3.206 0.471-1.149 0.051-2.165 0.417-3.054 1.096-0.678 0.521-1.276 1.107-1.799 1.761-0.521 0.652-1.019 1.33-1.486 2.034-0.472 0.703-0.939 1.407-1.411 2.11-0.468 0.707-0.989 1.344-1.563 1.917-0.834 0.889-2.009 1.748-3.521 2.582-1.513 0.837-3.104 1.579-4.772 2.231-1.668 0.653-3.34 1.188-5.008 1.605-1.669 0.417-3.104 0.624-4.305 0.624-0.624 0-1.159-0.144-1.602-0.431-0.445-0.286-0.809-0.665-1.099-1.133-0.286-0.472-0.493-0.978-0.624-1.525-0.13-0.548-0.197-1.082-0.197-1.604 0-0.889 0.248-1.802 0.745-2.738 0.497-0.939 1.044-1.853 1.643-2.741 0.599-0.885 1.146-1.693 1.643-2.423 0.497-0.732 0.745-1.356 0.745-1.878 0-0.055-0.016-0.118-0.041-0.197-0.025-0.077-0.038-0.144-0.038-0.194-0.261-0.105-0.783-0.249-1.566-0.43-0.78-0.186-1.303-0.303-1.563-0.354-0.051 0-0.182-0.013-0.392-0.038-0.207-0.026-0.366-0.039-0.468-0.039-0.366 0-0.589 0.013-0.665 0.039-0.08 0.025-0.118 0.089-0.118 0.193 0 0.105-0.038 0.274-0.118 0.51-0.079 0.235-0.273 0.535-0.586 0.901-0.155 0.155-0.417 0.417-0.783 0.779-0.366 0.366-0.758 0.758-1.175 1.175-0.417 0.418-0.809 0.809-1.171 1.175-0.366 0.363-0.628 0.624-0.783 0.78-0.418 0.105-1.149 0.274-2.19 0.51-1.045 0.235-2.14 0.471-3.286 0.703-1.149 0.236-2.244 0.472-3.289 0.707-1.041 0.232-1.773 0.376-2.19 0.43H29.81c-1.512 0-2.554-0.328-3.13-0.98-0.572-0.649-0.859-1.655-0.859-3.012 0-0.99 0.223-1.85 0.666-2.582 0.442-0.729 1.002-1.369 1.681-1.917 0.678-0.548 1.448-1.016 2.309-1.407 0.862-0.392 1.684-0.745 2.467-1.057v-0.783c0-0.156-0.235-0.3-0.706-0.43-0.469-0.131-1.016-0.223-1.644-0.274-0.624-0.051-1.251-0.092-1.878-0.117-0.624-0.025-1.066-0.038-1.328-0.038-2.034 0-3.967 0.417-5.791 1.251s-3.639 1.748-5.438 2.738c-1.799 0.993-3.64 1.903-5.518 2.737-1.876 0.838-3.885 1.255-6.024 1.255-0.678 0-1.276-0.054-1.799-0.156-0.521-0.104-0.913-0.602-1.175-1.486 0-0.262-0.013-0.783-0.038-1.566s-0.038-1.306-0.038-1.563c0-1.462 0.207-2.754 0.624-3.875 0.417-1.12 0.99-2.152 1.723-3.091 0.729-0.939 1.563-1.851 2.502-2.738 0.939-0.886 1.958-1.824 3.054-2.817v-0.78c-1.251-0.783-2.362-1.761-3.327-2.936s-1.837-2.426-2.62-3.757c-0.783-1.328-1.449-2.713-1.996-4.146-0.548-1.436-1.028-2.779-1.445-4.03 0-0.051-0.014-0.169-0.042-0.351C0.013 37.338 0 37.194 0 37.09c0-0.937 0.324-1.445 0.978-1.525 0.652-0.076 1.344-0.118 2.072-0.118 2.35 0 4.671 0.417 6.967 1.255 2.295 0.834 4.498 1.744 6.609 2.738 2.114 0.99 4.098 1.903 5.947 2.737 1.853 0.835 3.56 1.252 5.126 1.252 0.678 0 1.693-0.3 3.05-0.901 1.356-0.599 2.726-1.302 4.11-2.11 1.382-0.81 2.582-1.644 3.598-2.506 1.019-0.859 1.525-1.525 1.525-1.993v-0.392c-0.363-1.044-0.848-2.19-1.446-3.441-0.602-1.255-0.9-2.452-0.9-3.602 0-0.783 0.169-1.433 0.509-1.954 0.338-0.522 0.704-1.02 1.096-1.487 0.392-0.471 0.755-0.939 1.096-1.41 0.337-0.468 0.509-1.016 0.509-1.643 0-0.835-0.156-1.589-0.471-2.268-0.313-0.678-0.469-1.436-0.469-2.27 0-0.783 0.338-1.344 1.016-1.685 0.679-0.337 1.449-0.561 2.309-0.662 0.862-0.105 1.71-0.131 2.544-0.08 0.834 0.052 1.436 0.08 1.799 0.08 2.767 0 5.349 0.313 7.746 0.939 2.4 0.624 4.696 1.512 6.887 2.658 2.19 1.149 4.291 2.49 6.297 4.03 2.01 1.538 3.98 3.193 5.909 4.967 0.105 0.105 0.3 0.315 0.586 0.628 0.287 0.312 0.602 0.64 0.939 0.977 0.341 0.341 0.665 0.666 0.978 0.978 0.315 0.315 0.521 0.497 0.627 0.548 0.156 0.105 0.535 0.223 1.134 0.354 0.602 0.131 1.251 0.273 1.958 0.43 0.703 0.156 1.369 0.313 1.993 0.472 0.627 0.155 1.019 0.261 1.175 0.312 1.983 0.783 3.926 1.668 5.829 2.658 1.904 0.994 3.585 2.152 5.046 3.483 1.462 1.331 2.634 2.868 3.521 4.616C99.083 44.902 99.528 46.924 99.528 49.22z" fill="#ffffff" data-fill-palette-color="accent"></path><path fill-rule="evenodd" clip-rule="evenodd" fill="#ffffff" d="M38.419 41.785c-0.055 0-0.118-0.013-0.197-0.038-0.077-0.025-0.144-0.041-0.194-0.041-0.262 0-0.679 0.172-1.252 0.51-0.572 0.34-1.148 0.744-1.722 1.213-0.573 0.471-1.07 0.978-1.487 1.524-0.417 0.548-0.624 1.032-0.624 1.449v0.859l1.563 12.519c0.156 0.472 0.471 0.824 0.939 1.057 0.468 0.236 0.99 0.405 1.563 0.51 0.577 0.105 1.15 0.156 1.723 0.156 0.573 0 1.07 0 1.487 0 0-1.513-0.051-3.143-0.156-4.891-0.104-1.748-0.248-3.496-0.43-5.24-0.185-1.748-0.379-3.445-0.589-5.088C38.836 44.642 38.626 43.142 38.419 41.785z" data-fill-palette-color="accent"></path><path fill-rule="evenodd" clip-rule="evenodd" fill="#ffffff" d="M49.371 37.09c-0.051 0-0.169-0.013-0.351-0.038-0.182-0.026-0.327-0.039-0.43-0.039-1.356 0-2.531 0.417-3.521 1.252-0.99 0.834-1.382 2.009-1.175 3.521l3.13 21.908c0 0.104 0.197 0.248 0.589 0.43 0.389 0.185 0.717 0.303 0.978 0.354s0.821 0.104 1.681 0.156c0.86 0.054 1.424 0.079 1.682 0.079 0-0.21-0.013-0.589-0.038-1.137s-0.051-1.12-0.077-1.719c-0.028-0.602-0.054-1.175-0.079-1.723S51.721 59.207 51.721 59c-0.055-0.834-0.197-2.282-0.43-4.343-0.236-2.06-0.472-4.266-0.707-6.612-0.232-2.347-0.468-4.55-0.703-6.612C49.648 39.372 49.477 37.927 49.371 37.09z" data-fill-palette-color="accent"></path><path fill-rule="evenodd" clip-rule="evenodd" fill="#ffffff" d="M60.326 34.743c-0.156-0.417-0.366-0.665-0.624-0.742-0.261-0.079-0.576-0.117-0.938-0.117-0.472 0-0.876 0.051-1.214 0.155-0.341 0.105-0.72 0.338-1.137 0.704v1.958 1.955c0.055 0.678 0.144 1.681 0.274 3.012s0.261 2.843 0.392 4.54c0.13 1.693 0.286 3.479 0.471 5.358 0.182 1.878 0.351 3.664 0.507 5.358 0.159 1.696 0.302 3.222 0.433 4.578s0.22 2.347 0.274 2.974c0 0.104 0.102 0.261 0.312 0.471 0.207 0.207 0.366 0.313 0.468 0.313 0.159 0 0.434 0.025 0.821 0.076 0.392 0.055 0.809 0.093 1.255 0.118 0.442 0.025 0.859 0.054 1.251 0.079s0.665 0.038 0.821 0.038c0-0.155-0.013-0.43-0.038-0.821-0.028-0.392-0.054-0.821-0.079-1.289-0.025-0.472-0.051-0.901-0.08-1.293-0.025-0.392-0.038-0.665-0.038-0.821-0.051-0.678-0.156-1.71-0.312-3.092-0.156-1.382-0.341-2.944-0.548-4.692-0.21-1.748-0.43-3.588-0.666-5.518-0.235-1.93-0.455-3.77-0.665-5.518-0.207-1.745-0.392-3.312-0.548-4.692C60.563 36.453 60.432 35.421 60.326 34.743z" data-fill-palette-color="accent"></path><path fill-rule="evenodd" clip-rule="evenodd" fill="#ffffff" d="M75.975 64.477c0-0.156 0-0.392 0-0.704 0-0.312 0.013-0.665 0.041-1.057 0.025-0.392 0.039-0.742 0.039-1.057 0-0.313 0-0.548 0-0.704 0-1.617-0.156-3.193-0.472-4.734-0.312-1.537-0.468-3.117-0.468-4.734 0-0.99 0.235-1.563 0.703-1.719 0.472-0.156 1.175-0.236 2.114-0.236 0.99 0 1.837 0.156 2.541 0.469 0.706 0.314 1.554 0.471 2.544 0.471 1.355 0 2.492-0.379 3.403-1.133 0.913-0.758 1.369-1.866 1.369-3.327 0-1.407-0.469-2.478-1.407-3.21-0.939-0.729-2.061-1.095-3.365-1.095-0.679 0-1.29 0.131-1.838 0.392-0.547 0.261-1.069 0.548-1.566 0.862-0.496 0.313-1.002 0.599-1.524 0.86-0.522 0.261-1.096 0.392-1.723 0.392-0.312 0-0.69-0.013-1.134-0.038-0.442-0.029-0.716-0.303-0.821-0.822 0-0.314-0.025-0.888-0.079-1.722-0.051-0.834-0.118-1.71-0.194-2.62-0.079-0.914-0.169-1.773-0.273-2.582-0.105-0.81-0.185-1.373-0.236-1.685-0.051-0.261-0.169-0.586-0.354-0.978-0.181-0.392-0.324-0.586-0.43-0.586H68.62c0 0.313 0.013 0.885 0.038 1.72 0.029 0.834 0.055 1.696 0.08 2.582 0.025 0.888 0.066 1.747 0.117 2.582 0.051 0.834 0.076 1.41 0.076 1.722 0.055 0.889 0.186 2.439 0.393 4.655 0.21 2.219 0.445 4.578 0.706 7.081 0.258 2.505 0.507 4.864 0.742 7.083 0.235 2.217 0.404 3.767 0.509 4.655h0.784 0.779c0.262-0.055 0.783-0.169 1.566-0.354C75.194 64.725 75.714 64.581 75.975 64.477z" data-fill-palette-color="accent"></path></g></svg></g></svg></g><path d="M10.892 185.329l-0.854-2.59 26.649-8.783 1.82 5.524c1.028 3.119 1.279 5.54 0.753 7.263v0c-0.611 1.997-2.299 3.451-5.065 4.363v0c-4.619 1.522-8.022 0.676-10.21-2.538v0c-0.706-1.037-1.297-2.276-1.773-3.718v0l-0.966-2.933zM36.347 179.981l-0.904-2.743-12.1 3.988 0.904 2.743c0.753 2.284 1.814 3.824 3.185 4.621 1.379 0.801 3.204 0.827 5.476 0.078 2.271-0.749 3.6-1.814 3.986-3.197 0.388-1.376 0.206-3.207-0.547-5.49zM25.514 216.803l-1.404-2.102 23.332-15.585 1.404 2.102-10.768 7.193 7.564 11.325 10.769-7.192 1.404 2.102-23.332 15.584-1.404-2.102 10.569-7.06-7.564-11.325zM55.07 248.143l-1.298 1.426-5.571-5.073 1.298-1.426 1.962 1.408 15.89-17.451-1.437-1.687 1.326-1.456 5.275 4.804-1.325 1.455-1.822-1.28-15.89 17.451zM97.466 244.459v0l-1.502 1.792c-1.602-1.37-3.037-2.394-4.306-3.073v0c-4.576-2.447-7.607-2.28-9.093 0.499v0c-0.568 1.063-0.666 2.058-0.291 2.983 0.368 0.922 0.969 1.84 1.802 2.753 0.827 0.911 1.752 1.831 2.772 2.763 1.018 0.922 1.903 1.901 2.656 2.938v0c1.748 2.453 1.973 4.892 0.676 7.318-1.297 2.426-3.186 3.777-5.667 4.052v0c-2.138 0.255-4.479-0.298-7.022-1.658v0c-3.155-1.686-5.434-3.83-6.839-6.432v0l1.887-1.303c0.396 0.786 1.08 1.688 2.054 2.707 0.968 1.016 2.007 1.821 3.117 2.414v0c2.168 1.159 4.063 1.719 5.685 1.68v0c1.975-0.062 3.397-0.907 4.267-2.534v0c0.644-1.204 0.81-2.32 0.498-3.349-0.318-1.031-0.876-2.028-1.675-2.991-0.808-0.961-1.721-1.902-2.74-2.824-1.024-0.925-1.922-1.881-2.693-2.868v0c-1.823-2.312-2.187-4.493-1.091-6.543 1.096-2.05 2.669-3.298 4.72-3.742 2.06-0.447 4.385 0.021 6.976 1.406v0c2.003 1.071 3.94 2.408 5.809 4.012zM107.049 276.177l-2.466-0.554 6.15-27.376 2.466 0.554-2.838 12.635 13.288 2.986 2.839-12.635 2.466 0.554-6.15 27.376-2.467-0.554 2.786-12.401-13.288-2.986zM156.975 252.09v0l-0.324 2.315c-2.084-0.313-3.844-0.42-5.28-0.322v0c-5.177 0.351-7.659 2.099-7.446 5.242v0c0.082 1.203 0.526 2.098 1.334 2.684 0.801 0.587 1.797 1.047 2.988 1.379 1.184 0.334 2.456 0.625 3.815 0.873 1.352 0.242 2.622 0.603 3.809 1.084v0c2.782 1.153 4.267 3.102 4.453 5.847 0.186 2.745-0.7 4.891-2.658 6.44v0c-1.678 1.349-3.956 2.121-6.834 2.316v0c-3.569 0.242-6.638-0.368-9.207-1.829v0l0.908-2.104c0.752 0.456 1.811 0.859 3.177 1.206 1.359 0.348 2.667 0.48 3.923 0.395v0c2.452-0.166 4.356-0.696 5.711-1.589v0c1.641-1.1 2.4-2.57 2.274-4.411v0c-0.092-1.362-0.543-2.397-1.352-3.103-0.816-0.706-1.818-1.255-3.006-1.649-1.195-0.386-2.468-0.701-3.82-0.943-1.358-0.242-2.626-0.576-3.804-1.004v0c-2.772-0.994-4.236-2.65-4.393-4.97-0.157-2.32 0.516-4.211 2.019-5.675 1.509-1.471 3.729-2.306 6.66-2.505v0c2.266-0.154 4.617-0.046 7.053 0.323zM188.474 250.369l-1.874-4.733c-1.465-0.05-2.905 0.173-4.318 0.67v0c-2.847 1-4.78 2.854-5.799 5.563-1.012 2.707-0.811 6.074 0.604 10.103 1.417 4.035 3.327 6.538 5.73 7.509v0c1.661 0.688 3.613 0.637 5.856-0.151v0c1.439-0.505 2.824-1.175 4.156-2.01 1.337-0.837 2.217-1.499 2.638-1.986v0l1.18 1.672c-0.85 1.118-2.612 2.301-5.287 3.551v0c-0.775 0.385-1.609 0.735-2.502 1.049-0.899 0.316-2.002 0.541-3.31 0.675-1.315 0.137-2.643-0.057-3.985-0.581v0c-3.044-1.169-5.381-4.073-7.01-8.711-1.629-4.638-1.785-8.612-0.469-11.919 1.317-3.308 3.738-5.581 7.264-6.819v0c1.967-0.691 3.795-0.895 5.483-0.613v0c0.625 0.091 1.147 0.25 1.565 0.478v0l1.924 5.477zM229.313 247.553l-6.519-4.409-9.948 7.32 2.326 7.494-2.092 1.539-8.468-28.604 1.972-1.451 25.087 16.376zM207.295 232.702l4.908 15.742 8.813-6.485zM252.641 217.79l1.78 1.635-9.315 11.996-22.162-17.207 1.672-2.154 20.261 15.73zM243.682 177.535l2.137 1.129-4.576 10.726 9.697 4.136 4.246-9.954 2.127 1.125-4.167 9.77 9.475 4.042 4.968-11.644 2.137 1.128-5.96 13.97-25.808-11.009z" fill="#ffffff" data-fill-palette-color="primary"></path><path d="M30.619 108.586L29.769 111.168 3.195 102.415 5.008 96.91C6.034 93.797 7.269 91.707 8.715 90.64V90.64C10.387 89.396 12.603 89.228 15.361 90.137V90.137C19.967 91.654 22.193 94.351 22.038 98.227V98.227C21.992 99.475 21.732 100.819 21.256 102.262V102.262L20.294 105.185ZM7.034 97.788L6.134 100.521 18.206 104.497 19.106 101.764C19.856 99.486 19.917 97.62 19.288 96.164 18.66 94.709 17.213 93.608 14.948 92.862 12.682 92.116 10.985 92.181 9.855 93.057 8.724 93.933 7.784 95.51 7.034 97.788ZM42.83 82.05L41.432 84.144 18.165 68.606 19.563 66.512 30.299 73.681 37.846 62.38 27.11 55.211 28.509 53.117 51.776 68.654 50.377 70.748 39.841 63.712 32.294 75.013ZM66.558 51.627L67.85 53.045 62.293 58.104 61.002 56.685 62.587 54.864 46.737 37.457 44.923 38.73 43.605 37.282 48.865 32.492 50.184 33.94 48.747 35.627 64.596 53.034ZM81.694 12.903V12.903L82.345 15.138C80.322 15.706 78.675 16.329 77.406 17.007V17.007C72.847 19.444 71.309 22.048 72.791 24.821V24.821C73.356 25.879 74.124 26.511 75.095 26.717 76.067 26.923 77.161 26.935 78.378 26.753 79.594 26.571 80.869 26.313 82.201 25.978 83.533 25.644 84.836 25.454 86.11 25.407V25.407C89.112 25.314 91.259 26.477 92.553 28.898 93.847 31.318 93.922 33.635 92.778 35.848V35.848C91.804 37.758 90.049 39.391 87.511 40.747V40.747C84.362 42.43 81.323 43.133 78.395 42.854V42.854L78.35 40.567C79.224 40.674 80.351 40.608 81.734 40.368 83.116 40.127 84.359 39.712 85.464 39.122V39.122C87.626 37.966 89.141 36.703 90.01 35.333V35.333C91.049 33.659 91.136 32.012 90.269 30.39V30.39C89.629 29.192 88.794 28.437 87.767 28.125 86.739 27.813 85.604 27.725 84.362 27.86 83.12 27.995 81.833 28.23 80.501 28.564 79.169 28.898 77.878 29.112 76.629 29.205V29.205C73.703 29.44 71.694 28.535 70.601 26.49 69.508 24.446 69.347 22.447 70.116 20.495 70.886 18.543 72.563 16.876 75.148 15.495V15.495C77.146 14.427 79.328 13.563 81.694 12.903ZM111.9 31.239L109.443 31.791 103.316 4.491 105.773 3.94 108.6 16.537 121.86 13.561 119.033 0.964 121.49 0.413 127.616 27.712 125.159 28.264 122.385 15.901 109.125 18.877ZM159.643 1.313V1.313L159.01 3.554C156.994 2.963 155.268 2.618 153.832 2.52V2.52C148.675 2.17 145.99 3.563 145.776 6.7V6.7C145.695 7.896 146.011 8.839 146.726 9.528 147.44 10.218 148.361 10.808 149.489 11.299 150.618 11.79 151.835 12.246 153.142 12.669 154.449 13.092 155.654 13.621 156.76 14.257V14.257C159.354 15.769 160.558 17.894 160.372 20.633 160.186 23.371 159.021 25.375 156.878 26.644V26.644C155.041 27.748 152.686 28.202 149.815 28.007V28.007C146.253 27.764 143.304 26.749 140.968 24.961V24.961L142.143 22.998C142.827 23.552 143.818 24.093 145.118 24.622 146.417 25.151 147.691 25.458 148.941 25.543V25.543C151.387 25.71 153.341 25.442 154.804 24.741V24.741C156.573 23.873 157.519 22.522 157.644 20.687V20.687C157.736 19.331 157.429 18.249 156.723 17.44 156.017 16.631 155.102 15.954 153.977 15.41 152.852 14.866 151.637 14.383 150.33 13.96 149.023 13.537 147.816 13.035 146.707 12.452V12.452C144.101 11.099 142.877 9.267 143.035 6.954 143.192 4.641 144.114 2.861 145.802 1.614 147.489 0.366 149.795-0.158 152.719 0.041V0.041C154.979 0.195 157.287 0.619 159.643 1.313ZM195.3 18.712L196.795 13.857C195.69 12.903 194.433 12.179 193.025 11.684V11.684C190.185 10.686 187.524 10.923 185.044 12.395 182.563 13.867 180.616 16.614 179.202 20.636 177.788 24.658 177.716 27.796 178.985 30.05V30.05C179.844 31.623 181.393 32.803 183.63 33.59V33.59C185.063 34.093 186.559 34.436 188.12 34.617 189.68 34.799 190.777 34.831 191.411 34.715V34.715L191.289 36.748C189.927 37.089 187.815 36.911 184.952 36.215V36.215C184.113 36.033 183.246 35.785 182.354 35.471 181.462 35.158 180.463 34.644 179.358 33.931 178.253 33.218 177.34 32.24 176.618 30.998V30.998C174.979 28.19 174.972 24.473 176.598 19.848 178.224 15.223 180.581 12.033 183.669 10.28 186.756 8.527 190.06 8.269 193.579 9.507V9.507C195.54 10.196 197.087 11.178 198.221 12.452V12.452C198.652 12.914 198.96 13.361 199.147 13.794V13.794L197.225 19.262ZM217.564 56.401L219.824 48.882 209.911 41.584 203.467 46.022 201.375 44.481 226.106 27.946 228.069 29.392 219.914 58.131ZM225.174 31.032L211.643 40.377 220.429 46.847ZM240.663 79.299L238.646 80.611 229.36 68.643 251.465 51.492 253.132 53.64 232.921 69.32ZM276.805 96.027L274.52 96.783 269.961 86.083 260.29 90.203 264.52 100.131 262.236 100.887 258.084 91.143 248.634 95.17 253.585 106.789 251.3 107.545 245.362 93.61 271.102 82.642Z" fill="#ffffff" data-fill-palette-color="primary"></path><path d="M3.905 143.755c0-5.92 4.799-10.718 10.718-10.719 5.92 0 10.718 4.799 10.718 10.719 0 5.92-4.799 10.718-10.718 10.718-5.92 0-10.718-4.799-10.718-10.718zM255.714 143.755c0-5.92 4.799-10.718 10.719-10.719 5.92 0 10.718 4.799 10.718 10.719 0 5.92-4.799 10.718-10.718 10.718-5.92 0-10.718-4.799-10.719-10.718z" fill="#ffffff" data-fill-palette-color="primary"></path></svg></g></svg></g></svg></g></svg></g><defs></defs></svg><rect width="280" height="280" fill="none" stroke="none" visibility="hidden"></rect></g></svg></g></svg>